<svg width="1058" height="785" viewBox="0 0 1058 785" fill="none" xmlns="http://www.w3.org/2000/svg">
<rect width="1058" height="785" fill="#E5E5E5"/>
<g id="undraw_Ride_a_bicycle_2yok 1">
<g clip-path="url(#clip0)">
<path id="Vector" opacity="0.1" d="M205.802 100.432C200.322 107.082 198.212 116.432 195.852 125.222C176.852 196.062 130.032 253.042 76.7121 293.742C54.1321 310.982 26.6421 334.102 31.5821 365.012C34.2421 381.612 45.9121 393.832 54.5821 407.352C72.7721 435.662 78.6721 474.142 70.0021 508.032C60.1421 546.592 32.5821 582.572 41.1121 621.562C46.3721 645.562 64.2321 662.642 81.4021 677.322C108.189 700.209 135.829 721.649 164.322 741.642C183.422 755.042 203.742 768.082 226.002 769.782C245.602 771.282 264.802 763.832 283.412 756.482C299.672 750.052 316.342 743.362 329.472 730.482C338.042 722.072 344.872 711.222 354.392 704.342C376.752 688.182 405.472 698.422 431.112 705.342C491.612 721.582 556.362 715.652 613.932 688.602C702.242 647.102 769.552 559.952 855.932 513.192C893.072 493.082 933.472 480.602 967.862 454.702C987.237 439.956 1003.89 421.938 1017.06 401.462C1043.06 361.352 1057.12 310.212 1053.06 260.152C1049 210.092 1026.25 161.852 990.522 133.592C952.272 103.342 903.962 97.6922 860.442 79.5322C815.502 60.7722 775.522 28.5322 731.012 8.40216C694.996 -7.84119 655.8 -15.815 616.3 -14.9342C576.8 -14.0534 537.998 -4.34044 502.742 13.4922C454.302 37.9922 405.202 95.1522 351.252 99.4922C312.812 102.492 235.822 64.0122 205.802 100.432Z" fill="#6C63FF"/>
<g id="man-on-the-bike">
<path id="Vector_2" d="M387 554.303L344.293 512.159L330.947 525.683L373.654 567.827L387 554.303Z" fill="#535461"/>
<path id="Vector_3" d="M354.48 491.99C354.48 491.99 379.27 478.91 388.85 470.49C394.617 465.444 400.818 460.917 407.38 456.96L438.48 438.03L503.48 433.03L506.48 444.03C506.48 444.03 511.48 460.03 461.48 474.03C411.48 488.03 386.48 510.03 386.48 510.03C386.48 510.03 354.48 520.99 354.48 491.99Z" fill="#DB8B8B"/>
<path id="Vector_4" opacity="0.1" d="M389.13 507.86C387.36 509.21 386.48 509.99 386.48 509.99C386.48 509.99 354.48 520.99 354.48 491.99C354.48 491.99 356.03 491.17 358.48 489.8C360.955 493.831 364.423 497.16 368.551 499.469C372.679 501.778 377.33 502.99 382.06 502.99H385.45L389.13 507.86Z" fill="black"/>
<path id="Vector_5" opacity="0.05" d="M505.54 449.55C502.76 455.44 493.17 465.12 461.48 473.99C420.87 485.36 396.75 501.99 389.13 507.86C387.36 509.21 386.48 509.99 386.48 509.99C386.48 509.99 354.48 520.99 354.48 491.99C354.48 491.99 356.03 491.17 358.48 489.8C365.91 485.73 381.64 476.8 388.82 470.45C394.586 465.403 400.787 460.875 407.35 456.92L438.45 437.99L450.03 437.1L503.45 432.99L506.45 443.99C506.45 443.99 507.15 446.14 505.54 449.55Z" fill="black"/>
<path id="Vector_6" d="M354.98 485.49L328.48 502.99L406.08 567.99C406.08 567.99 417.48 560.99 411.48 552.99C411.48 552.99 391.48 535.99 390.48 511.99L384.48 503.99H381.09C375.358 503.991 369.767 502.211 365.089 498.897C360.412 495.583 356.88 490.898 354.98 485.49V485.49Z" fill="#ABB1D1"/>
<path id="Vector_7" opacity="0.1" d="M505.54 449.55C489.54 441.82 450.48 440.99 450.48 440.99L450.06 437.1L503.48 432.99L506.48 443.99C506.48 443.99 507.15 446.14 505.54 449.55Z" fill="black"/>
<path id="Vector_8" d="M450.48 438.99C450.48 438.99 497.48 439.99 509.48 449.99L503.48 328.99H438.48L450.48 438.99Z" fill="#ABB1D1"/>
<path id="Vector_9" opacity="0.05" d="M450.48 438.49C450.48 438.49 497.48 439.49 509.48 449.49L503.48 328.49H438.48L450.48 438.49Z" fill="black"/>
<path id="Vector_10" d="M488.24 364.95C488.24 364.95 605.89 360.95 608.29 376.16C610.69 391.37 490.64 384.96 490.64 384.96C490.64 384.96 481.04 375.35 488.24 364.95Z" fill="#535461"/>
<path id="Vector_11" opacity="0.05" d="M488.24 364.95C488.24 364.95 605.89 360.95 608.29 376.16C610.69 391.37 490.64 384.96 490.64 384.96C490.64 384.96 481.04 375.35 488.24 364.95Z" fill="black"/>
<path id="Vector_12" d="M393 425.78H372.19V606.66H393V425.78Z" fill="#6C63FF"/>
<path id="Vector_13" opacity="0.1" d="M393 425.77V439.7C386.08 440.6 379 441.17 372.19 441.39V425.77H393Z" fill="black"/>
<path id="Vector_14" d="M391.44 410.78C388.52 410.554 385.616 410.164 382.74 409.61C371.46 407.45 343.02 402.92 335.37 410.61C325.77 420.21 328.97 437.02 354.58 439.42C380.19 441.82 424.21 435.42 433.02 425.81C433.02 425.77 417.09 412.75 391.44 410.78Z" fill="#535461"/>
<path id="Vector_15" d="M387.4 475.4L605.9 407.37L613.1 424.18L389 501.01L387.4 475.4Z" fill="#6C63FF"/>
<path id="Vector_16" d="M452.23 582.65L609.9 427.38L618.7 440.18L468.23 597.05L452.23 582.65Z" fill="#6C63FF"/>
<path id="Vector_17" opacity="0.1" d="M653.58 529.85C648.584 531.142 643.712 532.872 639.02 535.02L629.46 508.31C634.477 506.123 639.644 504.295 644.92 502.84L653.58 529.85Z" fill="black"/>
<path id="Vector_18" d="M680.33 608.26L669.13 614.66L590.99 396.33L587.49 386.56L605.9 376.15L610.51 390.53L680.33 608.26Z" fill="#6C63FF"/>
<path id="Vector_19" opacity="0.1" d="M610.51 390.53L590.99 396.33L587.49 386.56L605.9 376.15L610.51 390.53Z" fill="black"/>
<path id="Vector_20" d="M491.44 407.37L601.09 369.75C601.09 369.75 620.3 372.15 613.09 388.16L502.65 420.97C502.65 420.97 485.85 422.57 491.44 407.37Z" fill="#535461"/>
<path id="Vector_21" opacity="0.1" d="M367.79 615.86C367.789 621.994 367.314 628.119 366.37 634.18C356.77 633.49 346.85 632.49 337.13 631.49C339.289 619.599 339.021 607.394 336.34 595.61C345.81 593.61 355.48 591.7 364.92 589.97C366.833 598.467 367.795 607.15 367.79 615.86V615.86Z" fill="black"/>
<path id="Vector_22" opacity="0.1" d="M393 585.38V606.65H372.19V588.65C379.39 587.4 386.39 586.29 393 585.38Z" fill="black"/>
<path id="Vector_23" d="M258.54 615.49C258.54 615.49 426.62 571.49 440.22 588.28C453.82 605.07 468.23 627.49 425.85 635.49C383.47 643.49 255.37 621.88 255.37 621.88L258.54 615.49Z" fill="#6C63FF"/>
<path id="Vector_24" opacity="0.1" d="M341.21 541.37L319.85 560.92C316.067 556.064 311.791 551.614 307.09 547.64L327.03 526.81C332.164 531.249 336.908 536.12 341.21 541.37V541.37Z" fill="black"/>
<path id="Vector_25" d="M252.94 606.66L378.59 475.4L382.6 505.81L259.34 618.66L252.94 606.66Z" fill="#6C63FF"/>
<path id="Vector_26" opacity="0.1" d="M448.22 628.27C462.364 628.27 473.83 616.804 473.83 602.66C473.83 588.516 462.364 577.05 448.22 577.05C434.076 577.05 422.61 588.516 422.61 602.66C422.61 616.804 434.076 628.27 448.22 628.27Z" fill="black"/>
<path id="Vector_27" d="M449.83 628.27C463.974 628.27 475.44 616.804 475.44 602.66C475.44 588.516 463.974 577.05 449.83 577.05C435.686 577.05 424.22 588.516 424.22 602.66C424.22 616.804 435.686 628.27 449.83 628.27Z" fill="#535461"/>
<path id="Vector_28" d="M442.992 600.736L442.984 600.742C439.977 602.991 439.362 607.253 441.611 610.26L461.937 637.441C464.186 640.448 468.448 641.063 471.455 638.814L471.463 638.808C474.471 636.559 475.085 632.297 472.836 629.29L452.51 602.109C450.261 599.102 446 598.487 442.992 600.736Z" fill="#6C63FF"/>
<path id="Vector_29" d="M565.48 246.99L563.1 277.1C562.826 280.914 562.876 284.744 563.25 288.55C563.56 291.92 563.25 297.82 559.95 306.82C555.713 318.317 553.523 330.467 553.48 342.72V376.99L530.48 372.99C530.48 372.99 531.48 324.99 527.48 316.99C523.48 308.99 530.48 237.99 530.48 237.99L565.48 246.99Z" fill="#DB8B8B"/>
<path id="Vector_30" opacity="0.05" d="M564.3 261.91L563.1 277.1C562.83 280.911 562.883 284.738 563.26 288.54C563.57 291.91 563.26 297.81 559.96 306.82C555.723 318.317 553.533 330.467 553.49 342.72V376.99L530.49 372.99C530.49 372.99 531.49 324.99 527.49 316.99C524.66 311.32 527.34 274.05 529.15 252.78C529.9 244.03 530.49 237.99 530.49 237.99L565.49 246.99L564.3 261.91Z" fill="black"/>
<path id="Vector_31" d="M451.5 476.99L442.85 526.19C441.759 532.759 440.086 539.218 437.85 545.49C432.78 559.35 436.02 578.78 438.48 589.38C439.57 594.06 440.48 597.02 440.48 597.02L414.48 611.02L406.48 605.02V601.02L405.48 512.02C399.48 498.02 401.48 477.02 405.48 469.02C406.617 466.392 407.417 463.63 407.86 460.8C409.86 450.08 410.48 435.02 410.48 435.02C410.48 435.02 426.48 408.02 445.48 426.02C452.48 432.65 455.14 441.32 455.7 449.62C456.68 463.83 451.5 476.99 451.5 476.99Z" fill="#DB8B8B"/>
<path id="Vector_32" opacity="0.1" d="M455.7 449.59C441.83 457.83 417.7 460.16 407.86 460.77C409.86 450.05 410.48 434.99 410.48 434.99C410.48 434.99 426.48 407.99 445.48 425.99C452.48 432.62 455.14 441.29 455.7 449.59Z" fill="black"/>
<path id="Vector_33" d="M489.48 424.99C478.846 430.653 468.797 437.352 459.48 444.99C443.48 457.99 403.48 458.99 403.48 458.99V443.99C404.48 425.99 387.48 405.99 364.48 349.99C349.79 314.23 353.86 293.99 358.72 283.99C361.48 278.34 364.48 275.99 364.48 275.99L489.48 299.99L493.95 313.39L503.48 341.99C503.48 341.99 468.48 343.99 462.48 346.99C456.48 349.99 460.48 376.99 460.48 376.99C454.48 404.99 489.48 424.99 489.48 424.99Z" fill="#ABB1D1"/>
<path id="Vector_34" opacity="0.1" d="M565.48 246.99L564.3 261.91C546.9 266.91 534.48 250.99 534.48 250.99C532.665 251.477 530.882 252.074 529.14 252.78C529.89 244.03 530.48 237.99 530.48 237.99L565.48 246.99Z" fill="black"/>
<path id="Vector_35" opacity="0.1" d="M493.95 313.39C493.48 318.06 493.48 320.99 493.48 320.99C493.48 320.99 470.48 339.99 431.48 310.99C392.48 281.99 357.48 289.99 357.48 289.99C357.48 289.99 357.89 287.67 358.72 283.99C361.48 278.34 364.48 275.99 364.48 275.99L489.48 299.99L493.95 313.39Z" fill="black"/>
<path id="Vector_36" d="M578.96 207.94C576.35 228.29 575.48 253.94 575.48 253.94C552.48 271.94 534.48 248.94 534.48 248.94C512.76 254.77 502.55 273.78 497.74 290.37C495.164 299.344 493.732 308.607 493.48 317.94C493.48 317.94 487.4 322.94 476.2 323.94C465.61 324.83 450.43 322.07 431.48 307.94C392.48 278.94 357.48 286.94 357.48 286.94C357.48 286.94 364.48 246.94 380.48 234.94C396.48 222.94 408.48 207.94 428.48 161.94C448.48 115.94 489.48 126.94 489.48 126.94C489.48 126.94 491.48 117.94 528.48 126.94C537.492 129.302 545.834 133.721 552.85 139.85C572.64 156.49 582.24 182.3 578.96 207.94Z" fill="white"/>
<path id="Vector_37" d="M541.85 149.49C541.8 150.82 541.69 152.3 541.51 153.95C539.51 171.95 537.51 169.95 515.51 173.95C501.83 176.44 494.72 165.01 491.3 156.01C490.062 152.75 489.128 149.382 488.51 145.95L536.51 137.95C536.51 137.95 542.26 136.34 541.85 149.49Z" fill="#DB8B8B"/>
<path id="Vector_38" opacity="0.05" d="M497.74 290.42C495.164 299.394 493.732 308.657 493.48 317.99C493.48 317.99 487.4 322.99 476.2 323.99C475.884 323.353 475.643 322.682 475.48 321.99C473.48 312.99 458.48 296.99 458.48 296.99C448.48 287.99 446.48 271.99 446.48 271.99L429.98 223.49L424.48 218.99C424.48 218.99 447.48 200.99 467.48 215.99C487.48 230.99 481.48 262.99 481.48 262.99L485.48 273.99C489.63 277.49 493.85 283.66 497.74 290.42Z" fill="black"/>
<path id="Vector_39" d="M427.48 217.99L449.48 270.99C449.48 270.99 451.48 286.99 461.48 295.99C461.48 295.99 476.48 311.99 478.48 320.99C480.48 329.99 508.48 353.99 508.48 353.99C508.48 353.99 534.48 377.99 536.48 386.99C536.48 386.99 560.48 393.99 557.48 407.99C557.48 407.99 575.48 389.99 557.48 372.99C539.48 355.99 515.48 320.99 515.48 320.99C515.48 320.99 501.48 283.99 488.48 272.99L484.48 261.99C484.48 261.99 490.48 229.99 470.48 214.99C450.48 199.99 427.48 217.99 427.48 217.99Z" fill="#DB8B8B"/>
<path id="Vector_40" opacity="0.1" d="M440.48 596.99L414.48 610.99L406.48 604.99V600.99C415.464 600.352 424.193 597.718 432.03 593.28C434.43 591.92 436.69 590.58 438.5 589.4C439.55 594.03 440.48 596.99 440.48 596.99Z" fill="black"/>
<path id="Vector_41" opacity="0.1" d="M470.48 175.99L484.48 230.99C484.48 230.99 441.48 237.99 432.48 230.99C423.48 223.99 406.48 221.99 406.48 221.99C406.48 221.99 424.48 169.99 434.48 163.99C444.48 157.99 470.48 175.99 470.48 175.99Z" fill="black"/>
<path id="Vector_42" d="M470.48 173.99L484.48 228.99C484.48 228.99 441.48 235.99 432.48 228.99C423.48 221.99 406.48 219.99 406.48 219.99C406.48 219.99 424.48 167.99 434.48 161.99C444.48 155.99 470.48 173.99 470.48 173.99Z" fill="white"/>
<path id="Vector_43" opacity="0.1" d="M541.85 148.49C539.049 152.356 535.487 155.609 531.383 158.047C527.278 160.485 522.718 162.058 517.983 162.669C513.248 163.28 508.439 162.915 503.85 161.598C499.261 160.281 494.99 158.039 491.3 155.01C490.062 151.75 489.128 148.382 488.51 144.95L536.51 136.95C536.51 136.95 542.26 135.34 541.85 148.49Z" fill="black"/>
<path id="Vector_44" d="M548.48 126.99C548.48 136.273 544.793 145.175 538.229 151.739C531.665 158.303 522.763 161.99 513.48 161.99C504.197 161.99 495.295 158.303 488.731 151.739C482.168 145.175 478.48 136.273 478.48 126.99C478.48 126.41 478.48 125.83 478.48 125.25C478.711 115.967 482.62 107.157 489.346 100.756C496.073 94.3555 505.067 90.8893 514.35 91.12C523.633 91.3508 532.443 95.2595 538.844 101.986C545.245 108.713 548.711 117.707 548.48 126.99V126.99Z" fill="#DB8B8B"/>
<path id="Vector_45" opacity="0.05" d="M384.98 234.49C384.98 234.49 410.98 241.49 418.98 259.49C426.98 277.49 448.62 280.78 448.62 280.78" fill="black"/>
<path id="Vector_46" d="M482.98 630.49H422.98V649.49H482.98V630.49Z" fill="#535461"/>
<path id="Vector_47" d="M431.99 595.23C437.36 592.23 442.07 589.23 442.48 587.99C442.48 587.99 456.03 602.29 468.1 606.73C472.159 608.229 476.044 610.16 479.69 612.49C484.47 615.49 491.29 619.02 497.48 619.02C497.48 619.02 511.48 631.02 484.48 633.02C457.48 635.02 394.48 628.02 394.48 628.02L398.48 603.02C410.167 603.705 421.804 601 431.99 595.23Z" fill="#ABB1D1"/>
</g>
<g id="left-wheel">
<path id="Vector_48" d="M259.725 715.778L253.455 617.838L253.325 617.628L247.005 619.828L217.925 704.678L171.675 671.888L245.345 618.478L245.415 618.268L245.835 618.118L250.585 614.668L173.345 571.358L154.425 592.158L157.425 611.658L246.245 613.278V615.278L155.765 613.658L152.345 591.518L178.245 563.058L216.995 517.858L217.685 519.728L225.885 510.728L256.345 516.188V514.978L258.345 515.038V516.548L303.705 524.668L261.415 609.278L255.245 613.748V614.248V614.808L353.045 580.728L341.435 671.938L258.435 619.068L255.515 617.428L304.455 696.308L259.725 715.778ZM255.725 621.438L261.575 712.818L301.625 695.438L255.725 621.438ZM175.145 671.868L216.935 701.498L244.275 621.758L175.145 671.868ZM257.465 616.208L259.555 617.378L339.905 668.578L350.705 583.708L257.465 616.208ZM250.365 609.008L252.875 613.058L253.315 612.738L256.315 518.208L226.575 512.888L218.415 521.888L250.365 609.008ZM174.945 569.948L249.785 611.948L248.485 609.818L216.905 523.548L179.715 564.418L174.945 569.948ZM258.345 518.558L255.345 611.278L259.865 607.998L300.775 526.178L258.345 518.558Z" fill="#535461"/>
<path id="Vector_49" d="M369.415 588.738C365.405 570.919 357.285 554.283 345.705 540.158C341.406 534.909 336.666 530.038 331.535 525.598C311.809 508.567 286.986 498.568 260.962 497.17C234.938 495.771 209.187 503.053 187.749 517.873C166.311 532.693 150.401 554.211 142.515 579.05C134.629 603.89 135.214 630.645 144.178 655.116C153.142 679.587 169.978 700.39 192.042 714.258C214.107 728.127 240.152 734.277 266.09 731.743C292.028 729.208 316.39 718.134 335.353 700.257C354.317 682.379 366.807 658.712 370.865 632.968C371.809 626.907 372.284 620.783 372.285 614.648C372.292 605.932 371.329 597.242 369.415 588.738ZM254.225 703.088C235.993 703.069 218.209 697.435 203.292 686.953C188.374 676.47 177.047 661.648 170.851 644.501C164.655 627.354 163.89 608.715 168.66 591.118C173.43 573.521 183.505 557.82 197.513 546.15C211.521 534.48 228.783 527.408 246.953 525.895C265.122 524.381 283.316 528.501 299.062 537.693C314.807 546.884 327.34 560.703 334.956 577.268C342.571 593.834 344.9 612.343 341.625 630.278C337.875 650.722 327.076 669.203 311.107 682.506C295.137 695.809 275.01 703.093 254.225 703.088V703.088Z" fill="#535461"/>
<path id="Vector_50" d="M254.305 627.408C261.38 627.408 267.115 621.673 267.115 614.598C267.115 607.524 261.38 601.788 254.305 601.788C247.23 601.788 241.495 607.524 241.495 614.598C241.495 621.673 247.23 627.408 254.305 627.408Z" fill="#535461"/>
</g>
<g id="right-wheel">
<path id="Vector_51" d="M679.847 713.78L673.587 615.88L673.457 615.67L667.137 617.87L638.047 702.68L591.797 669.88L665.487 616.47L665.557 616.26L665.977 616.11L670.727 612.66L593.487 569.35L574.557 590.15L577.557 609.65L666.357 611.23V613.23L575.877 611.61L572.477 589.5L598.367 561.05L637.087 515.88L637.777 517.75L645.977 508.75L676.517 514.22V513.01L678.517 513.07V514.58L723.877 522.7L681.547 607.35L675.377 611.82V612.32V612.88L773.187 578.8L761.577 670.01L678.577 617.14L675.657 615.5L724.597 694.39L679.847 713.78ZM675.847 619.44L681.697 710.82L721.747 693.44L675.847 619.44ZM595.277 669.88L637.067 699.51L664.407 619.77L595.277 669.88ZM677.597 614.22L679.687 615.39L760.037 666.59L770.837 581.72L677.597 614.22ZM670.497 607.02L673.007 611.07L673.447 610.75L676.447 516.22L646.707 510.88L638.547 519.88L670.497 607.02ZM595.107 567.97L669.947 609.97L668.647 607.84L637.067 521.57L599.867 562.45L595.107 567.97ZM678.477 516.58L675.477 609.27L679.997 605.99L720.907 524.17L678.477 516.58Z" fill="#535461"/>
<path id="Vector_52" d="M674.757 495C664.144 494.988 653.578 496.415 643.347 499.24C638.071 500.695 632.904 502.523 627.887 504.71C601.157 516.297 579.674 537.387 567.594 563.898C555.514 590.41 553.697 620.459 562.492 648.233C571.287 676.008 590.071 699.533 615.209 714.259C640.348 728.984 670.054 733.863 698.582 727.952C727.109 722.04 752.431 705.759 769.648 682.257C786.865 658.755 794.754 629.702 791.789 600.72C788.823 571.738 775.215 544.885 753.595 525.356C731.975 505.828 703.881 495.012 674.747 495H674.757ZM674.357 701.09C654.076 701.082 634.408 694.137 618.62 681.407C602.831 668.678 591.872 650.931 587.562 631.113C583.252 611.295 585.851 590.599 594.928 572.463C604.004 554.326 619.011 539.84 637.457 531.41C642.149 529.262 647.021 527.532 652.017 526.24C664.229 523.07 676.977 522.537 689.411 524.678C701.845 526.818 713.681 531.581 724.13 538.652C734.58 545.722 743.404 554.937 750.015 565.683C756.627 576.429 760.873 588.46 762.473 600.975C764.073 613.49 762.989 626.202 759.293 638.265C755.598 650.329 749.375 661.467 741.04 670.939C732.704 680.41 722.447 687.998 710.951 693.196C699.455 698.395 686.984 701.086 674.367 701.09H674.357Z" fill="#535461"/>
<path id="Vector_53" d="M674.357 625.06C681.432 625.06 687.167 619.325 687.167 612.25C687.167 605.175 681.432 599.44 674.357 599.44C667.282 599.44 661.547 605.175 661.547 612.25C661.547 619.325 667.282 625.06 674.357 625.06Z" fill="#535461"/>
</g>
<g id="hat">
<path id="Vector_54" d="M456.624 96.9267C458.754 103.607 468.984 103.817 474.234 108.737C476.964 111.297 478.234 115.077 481.234 117.357C485.404 120.537 491.424 119.837 496.734 119.077C507.424 117.557 518.904 116.647 528.544 121.257C531.964 122.887 535.034 125.167 538.604 126.497C542.174 127.827 546.604 127.987 549.504 125.627C551.824 123.737 552.674 120.627 554.774 118.547C556.404 116.907 558.674 115.987 560.534 114.547C564.614 111.467 566.374 106.447 567.534 101.647C569.934 91.7667 570.624 81.1167 566.534 71.7467C562.444 62.3767 552.604 54.7467 541.864 55.2367C538.574 55.3867 535.364 56.2367 532.084 56.5967C523.534 57.4667 515.084 54.5967 506.504 54.1067C504.015 53.8039 501.49 54.1483 499.174 55.1067C497.427 56.0775 495.92 57.4273 494.764 59.0567C490.836 64.2021 488.146 70.1836 486.904 76.5367C485.904 81.3267 485.854 85.6667 479.984 86.4067C473.314 87.2867 452.114 82.7967 456.624 96.9267Z" fill="#472727"/>
</g>
</g>
</g>
<defs>
<clipPath id="clip0">
<rect width="1057.7" height="784.98" fill="white"/>
</clipPath>
</defs>
</svg>
